M48
; DRILL file {KiCad 9.0.5} date 2025-10-22T16:43:29-0400
; FORMAT={-:-/ absolute / metric / decimal}
; #@! TF.CreationDate,2025-10-22T16:43:29-04:00
; #@! TF.GenerationSoftware,Kicad,Pcbnew,9.0.5
; #@! TF.FileFunction,Plated,1,2,PTH
FMAT,2
METRIC
; #@! TA.AperFunction,Plated,PTH,ViaDrill
T1C0.300
; #@! TA.AperFunction,Plated,PTH,ComponentDrill
T2C0.500
; #@! TA.AperFunction,Plated,PTH,ComponentDrill
T3C1.000
%
G90
G05
T1
X87.249Y-59.69
X90.462Y-57.937
X90.462Y-58.826
X91.415Y-57.937
X91.415Y-58.826
X92.202Y-60.022
X95.504Y-61.366
X96.139Y-69.469
X97.917Y-69.469
X99.187Y-64.643
X99.441Y-65.405
X101.448Y-60.022
X102.286Y-57.937
X102.286Y-58.826
X102.489Y-64.643
X102.616Y-69.469
X103.238Y-57.937
X103.238Y-58.826
X107.239Y-59.995
T2
X95.377Y-72.787
X95.377Y-73.787
X97.917Y-72.787
X97.917Y-73.787
T3
X86.614Y-82.737
X87.518Y-62.687
X89.154Y-82.737
X91.694Y-82.737
X92.518Y-62.687
X92.837Y-76.962
X94.234Y-82.737
X95.377Y-76.962
X97.917Y-76.962
X99.06Y-82.737
X100.457Y-76.962
X101.6Y-82.737
X104.14Y-82.737
X105.156Y-61.254
X105.156Y-66.254
X106.68Y-82.737
M30
