%TF.GenerationSoftware,KiCad,Pcbnew,9.0.5*%
%TF.CreationDate,2025-10-22T16:43:25-04:00*%
%TF.ProjectId,USBC_I2C,55534243-5f49-4324-932e-6b696361645f,rev?*%
%TF.SameCoordinates,Original*%
%TF.FileFunction,Legend,Top*%
%TF.FilePolarity,Positive*%
%FSLAX46Y46*%
G04 Gerber Fmt 4.6, Leading zero omitted, Abs format (unit mm)*
G04 Created by KiCad (PCBNEW 9.0.5) date 2025-10-22 16:43:25*
%MOMM*%
%LPD*%
G01*
G04 APERTURE LIST*
%ADD10C,0.100000*%
%ADD11C,0.150000*%
%ADD12C,0.120000*%
G04 APERTURE END LIST*
D10*
X93976381Y-71338204D02*
X94047809Y-71362014D01*
X94047809Y-71362014D02*
X94071619Y-71385823D01*
X94071619Y-71385823D02*
X94095428Y-71433442D01*
X94095428Y-71433442D02*
X94095428Y-71504871D01*
X94095428Y-71504871D02*
X94071619Y-71552490D01*
X94071619Y-71552490D02*
X94047809Y-71576300D01*
X94047809Y-71576300D02*
X94000190Y-71600109D01*
X94000190Y-71600109D02*
X93809714Y-71600109D01*
X93809714Y-71600109D02*
X93809714Y-71100109D01*
X93809714Y-71100109D02*
X93976381Y-71100109D01*
X93976381Y-71100109D02*
X94024000Y-71123919D01*
X94024000Y-71123919D02*
X94047809Y-71147728D01*
X94047809Y-71147728D02*
X94071619Y-71195347D01*
X94071619Y-71195347D02*
X94071619Y-71242966D01*
X94071619Y-71242966D02*
X94047809Y-71290585D01*
X94047809Y-71290585D02*
X94024000Y-71314395D01*
X94024000Y-71314395D02*
X93976381Y-71338204D01*
X93976381Y-71338204D02*
X93809714Y-71338204D01*
X94524000Y-71600109D02*
X94524000Y-71338204D01*
X94524000Y-71338204D02*
X94500190Y-71290585D01*
X94500190Y-71290585D02*
X94452571Y-71266776D01*
X94452571Y-71266776D02*
X94357333Y-71266776D01*
X94357333Y-71266776D02*
X94309714Y-71290585D01*
X94524000Y-71576300D02*
X94476381Y-71600109D01*
X94476381Y-71600109D02*
X94357333Y-71600109D01*
X94357333Y-71600109D02*
X94309714Y-71576300D01*
X94309714Y-71576300D02*
X94285905Y-71528680D01*
X94285905Y-71528680D02*
X94285905Y-71481061D01*
X94285905Y-71481061D02*
X94309714Y-71433442D01*
X94309714Y-71433442D02*
X94357333Y-71409633D01*
X94357333Y-71409633D02*
X94476381Y-71409633D01*
X94476381Y-71409633D02*
X94524000Y-71385823D01*
X94976381Y-71576300D02*
X94928762Y-71600109D01*
X94928762Y-71600109D02*
X94833524Y-71600109D01*
X94833524Y-71600109D02*
X94785905Y-71576300D01*
X94785905Y-71576300D02*
X94762095Y-71552490D01*
X94762095Y-71552490D02*
X94738286Y-71504871D01*
X94738286Y-71504871D02*
X94738286Y-71362014D01*
X94738286Y-71362014D02*
X94762095Y-71314395D01*
X94762095Y-71314395D02*
X94785905Y-71290585D01*
X94785905Y-71290585D02*
X94833524Y-71266776D01*
X94833524Y-71266776D02*
X94928762Y-71266776D01*
X94928762Y-71266776D02*
X94976381Y-71290585D01*
X95190666Y-71600109D02*
X95190666Y-71100109D01*
X95238285Y-71409633D02*
X95381142Y-71600109D01*
X95381142Y-71266776D02*
X95190666Y-71457252D01*
X95809714Y-71266776D02*
X95809714Y-71600109D01*
X95595428Y-71266776D02*
X95595428Y-71528680D01*
X95595428Y-71528680D02*
X95619238Y-71576300D01*
X95619238Y-71576300D02*
X95666857Y-71600109D01*
X95666857Y-71600109D02*
X95738285Y-71600109D01*
X95738285Y-71600109D02*
X95785904Y-71576300D01*
X95785904Y-71576300D02*
X95809714Y-71552490D01*
X96047809Y-71266776D02*
X96047809Y-71766776D01*
X96047809Y-71290585D02*
X96095428Y-71266776D01*
X96095428Y-71266776D02*
X96190666Y-71266776D01*
X96190666Y-71266776D02*
X96238285Y-71290585D01*
X96238285Y-71290585D02*
X96262095Y-71314395D01*
X96262095Y-71314395D02*
X96285904Y-71362014D01*
X96285904Y-71362014D02*
X96285904Y-71504871D01*
X96285904Y-71504871D02*
X96262095Y-71552490D01*
X96262095Y-71552490D02*
X96238285Y-71576300D01*
X96238285Y-71576300D02*
X96190666Y-71600109D01*
X96190666Y-71600109D02*
X96095428Y-71600109D01*
X96095428Y-71600109D02*
X96047809Y-71576300D01*
X97023999Y-71100109D02*
X97023999Y-71457252D01*
X97023999Y-71457252D02*
X97000190Y-71528680D01*
X97000190Y-71528680D02*
X96952571Y-71576300D01*
X96952571Y-71576300D02*
X96881142Y-71600109D01*
X96881142Y-71600109D02*
X96833523Y-71600109D01*
X97476380Y-71266776D02*
X97476380Y-71600109D01*
X97262094Y-71266776D02*
X97262094Y-71528680D01*
X97262094Y-71528680D02*
X97285904Y-71576300D01*
X97285904Y-71576300D02*
X97333523Y-71600109D01*
X97333523Y-71600109D02*
X97404951Y-71600109D01*
X97404951Y-71600109D02*
X97452570Y-71576300D01*
X97452570Y-71576300D02*
X97476380Y-71552490D01*
X97714475Y-71600109D02*
X97714475Y-71266776D01*
X97714475Y-71314395D02*
X97738285Y-71290585D01*
X97738285Y-71290585D02*
X97785904Y-71266776D01*
X97785904Y-71266776D02*
X97857332Y-71266776D01*
X97857332Y-71266776D02*
X97904951Y-71290585D01*
X97904951Y-71290585D02*
X97928761Y-71338204D01*
X97928761Y-71338204D02*
X97928761Y-71600109D01*
X97928761Y-71338204D02*
X97952570Y-71290585D01*
X97952570Y-71290585D02*
X98000189Y-71266776D01*
X98000189Y-71266776D02*
X98071618Y-71266776D01*
X98071618Y-71266776D02*
X98119237Y-71290585D01*
X98119237Y-71290585D02*
X98143047Y-71338204D01*
X98143047Y-71338204D02*
X98143047Y-71600109D01*
X98381142Y-71266776D02*
X98381142Y-71766776D01*
X98381142Y-71290585D02*
X98428761Y-71266776D01*
X98428761Y-71266776D02*
X98523999Y-71266776D01*
X98523999Y-71266776D02*
X98571618Y-71290585D01*
X98571618Y-71290585D02*
X98595428Y-71314395D01*
X98595428Y-71314395D02*
X98619237Y-71362014D01*
X98619237Y-71362014D02*
X98619237Y-71504871D01*
X98619237Y-71504871D02*
X98595428Y-71552490D01*
X98595428Y-71552490D02*
X98571618Y-71576300D01*
X98571618Y-71576300D02*
X98523999Y-71600109D01*
X98523999Y-71600109D02*
X98428761Y-71600109D01*
X98428761Y-71600109D02*
X98381142Y-71576300D01*
X99023999Y-71576300D02*
X98976380Y-71600109D01*
X98976380Y-71600109D02*
X98881142Y-71600109D01*
X98881142Y-71600109D02*
X98833523Y-71576300D01*
X98833523Y-71576300D02*
X98809714Y-71528680D01*
X98809714Y-71528680D02*
X98809714Y-71338204D01*
X98809714Y-71338204D02*
X98833523Y-71290585D01*
X98833523Y-71290585D02*
X98881142Y-71266776D01*
X98881142Y-71266776D02*
X98976380Y-71266776D01*
X98976380Y-71266776D02*
X99023999Y-71290585D01*
X99023999Y-71290585D02*
X99047809Y-71338204D01*
X99047809Y-71338204D02*
X99047809Y-71385823D01*
X99047809Y-71385823D02*
X98809714Y-71433442D01*
X99262094Y-71600109D02*
X99262094Y-71266776D01*
X99262094Y-71362014D02*
X99285904Y-71314395D01*
X99285904Y-71314395D02*
X99309713Y-71290585D01*
X99309713Y-71290585D02*
X99357332Y-71266776D01*
X99357332Y-71266776D02*
X99404951Y-71266776D01*
X99547809Y-71576300D02*
X99595428Y-71600109D01*
X99595428Y-71600109D02*
X99690666Y-71600109D01*
X99690666Y-71600109D02*
X99738285Y-71576300D01*
X99738285Y-71576300D02*
X99762094Y-71528680D01*
X99762094Y-71528680D02*
X99762094Y-71504871D01*
X99762094Y-71504871D02*
X99738285Y-71457252D01*
X99738285Y-71457252D02*
X99690666Y-71433442D01*
X99690666Y-71433442D02*
X99619237Y-71433442D01*
X99619237Y-71433442D02*
X99571618Y-71409633D01*
X99571618Y-71409633D02*
X99547809Y-71362014D01*
X99547809Y-71362014D02*
X99547809Y-71338204D01*
X99547809Y-71338204D02*
X99571618Y-71290585D01*
X99571618Y-71290585D02*
X99619237Y-71266776D01*
X99619237Y-71266776D02*
X99690666Y-71266776D01*
X99690666Y-71266776D02*
X99738285Y-71290585D01*
D11*
X84518667Y-65812200D02*
X84661524Y-65859819D01*
X84661524Y-65859819D02*
X84899619Y-65859819D01*
X84899619Y-65859819D02*
X84994857Y-65812200D01*
X84994857Y-65812200D02*
X85042476Y-65764580D01*
X85042476Y-65764580D02*
X85090095Y-65669342D01*
X85090095Y-65669342D02*
X85090095Y-65574104D01*
X85090095Y-65574104D02*
X85042476Y-65478866D01*
X85042476Y-65478866D02*
X84994857Y-65431247D01*
X84994857Y-65431247D02*
X84899619Y-65383628D01*
X84899619Y-65383628D02*
X84709143Y-65336009D01*
X84709143Y-65336009D02*
X84613905Y-65288390D01*
X84613905Y-65288390D02*
X84566286Y-65240771D01*
X84566286Y-65240771D02*
X84518667Y-65145533D01*
X84518667Y-65145533D02*
X84518667Y-65050295D01*
X84518667Y-65050295D02*
X84566286Y-64955057D01*
X84566286Y-64955057D02*
X84613905Y-64907438D01*
X84613905Y-64907438D02*
X84709143Y-64859819D01*
X84709143Y-64859819D02*
X84947238Y-64859819D01*
X84947238Y-64859819D02*
X85090095Y-64907438D01*
X85423429Y-64859819D02*
X85661524Y-65859819D01*
X85661524Y-65859819D02*
X85852000Y-65145533D01*
X85852000Y-65145533D02*
X86042476Y-65859819D01*
X86042476Y-65859819D02*
X86280572Y-64859819D01*
X87185333Y-65859819D02*
X86613905Y-65859819D01*
X86899619Y-65859819D02*
X86899619Y-64859819D01*
X86899619Y-64859819D02*
X86804381Y-65002676D01*
X86804381Y-65002676D02*
X86709143Y-65097914D01*
X86709143Y-65097914D02*
X86613905Y-65145533D01*
X89885094Y-79956819D02*
X89313666Y-79956819D01*
X89599380Y-79956819D02*
X89599380Y-78956819D01*
X89599380Y-78956819D02*
X89504142Y-79099676D01*
X89504142Y-79099676D02*
X89408904Y-79194914D01*
X89408904Y-79194914D02*
X89313666Y-79242533D01*
X90218428Y-79956819D02*
X90742237Y-79290152D01*
X90218428Y-79290152D02*
X90742237Y-79956819D01*
X91551761Y-79290152D02*
X91551761Y-79956819D01*
X91313666Y-78909200D02*
X91075571Y-79623485D01*
X91075571Y-79623485D02*
X91694618Y-79623485D01*
X92789857Y-79052057D02*
X92837476Y-79004438D01*
X92837476Y-79004438D02*
X92932714Y-78956819D01*
X92932714Y-78956819D02*
X93170809Y-78956819D01*
X93170809Y-78956819D02*
X93266047Y-79004438D01*
X93266047Y-79004438D02*
X93313666Y-79052057D01*
X93313666Y-79052057D02*
X93361285Y-79147295D01*
X93361285Y-79147295D02*
X93361285Y-79242533D01*
X93361285Y-79242533D02*
X93313666Y-79385390D01*
X93313666Y-79385390D02*
X92742238Y-79956819D01*
X92742238Y-79956819D02*
X93361285Y-79956819D01*
X93789857Y-79861580D02*
X93837476Y-79909200D01*
X93837476Y-79909200D02*
X93789857Y-79956819D01*
X93789857Y-79956819D02*
X93742238Y-79909200D01*
X93742238Y-79909200D02*
X93789857Y-79861580D01*
X93789857Y-79861580D02*
X93789857Y-79956819D01*
X94742237Y-78956819D02*
X94266047Y-78956819D01*
X94266047Y-78956819D02*
X94218428Y-79433009D01*
X94218428Y-79433009D02*
X94266047Y-79385390D01*
X94266047Y-79385390D02*
X94361285Y-79337771D01*
X94361285Y-79337771D02*
X94599380Y-79337771D01*
X94599380Y-79337771D02*
X94694618Y-79385390D01*
X94694618Y-79385390D02*
X94742237Y-79433009D01*
X94742237Y-79433009D02*
X94789856Y-79528247D01*
X94789856Y-79528247D02*
X94789856Y-79766342D01*
X94789856Y-79766342D02*
X94742237Y-79861580D01*
X94742237Y-79861580D02*
X94694618Y-79909200D01*
X94694618Y-79909200D02*
X94599380Y-79956819D01*
X94599380Y-79956819D02*
X94361285Y-79956819D01*
X94361285Y-79956819D02*
X94266047Y-79909200D01*
X94266047Y-79909200D02*
X94218428Y-79861580D01*
X95646999Y-79290152D02*
X95646999Y-79956819D01*
X95408904Y-78909200D02*
X95170809Y-79623485D01*
X95170809Y-79623485D02*
X95789856Y-79623485D01*
X96170809Y-79956819D02*
X96170809Y-78956819D01*
X96170809Y-78956819D02*
X96504142Y-79671104D01*
X96504142Y-79671104D02*
X96837475Y-78956819D01*
X96837475Y-78956819D02*
X96837475Y-79956819D01*
X97313666Y-79956819D02*
X97313666Y-78956819D01*
X97313666Y-78956819D02*
X97646999Y-79671104D01*
X97646999Y-79671104D02*
X97980332Y-78956819D01*
X97980332Y-78956819D02*
X97980332Y-79956819D01*
X99218428Y-79956819D02*
X99218428Y-78956819D01*
X99218428Y-79433009D02*
X99789856Y-79433009D01*
X99789856Y-79956819D02*
X99789856Y-78956819D01*
X100646999Y-79909200D02*
X100551761Y-79956819D01*
X100551761Y-79956819D02*
X100361285Y-79956819D01*
X100361285Y-79956819D02*
X100266047Y-79909200D01*
X100266047Y-79909200D02*
X100218428Y-79813961D01*
X100218428Y-79813961D02*
X100218428Y-79433009D01*
X100218428Y-79433009D02*
X100266047Y-79337771D01*
X100266047Y-79337771D02*
X100361285Y-79290152D01*
X100361285Y-79290152D02*
X100551761Y-79290152D01*
X100551761Y-79290152D02*
X100646999Y-79337771D01*
X100646999Y-79337771D02*
X100694618Y-79433009D01*
X100694618Y-79433009D02*
X100694618Y-79528247D01*
X100694618Y-79528247D02*
X100218428Y-79623485D01*
X101551761Y-79956819D02*
X101551761Y-79433009D01*
X101551761Y-79433009D02*
X101504142Y-79337771D01*
X101504142Y-79337771D02*
X101408904Y-79290152D01*
X101408904Y-79290152D02*
X101218428Y-79290152D01*
X101218428Y-79290152D02*
X101123190Y-79337771D01*
X101551761Y-79909200D02*
X101456523Y-79956819D01*
X101456523Y-79956819D02*
X101218428Y-79956819D01*
X101218428Y-79956819D02*
X101123190Y-79909200D01*
X101123190Y-79909200D02*
X101075571Y-79813961D01*
X101075571Y-79813961D02*
X101075571Y-79718723D01*
X101075571Y-79718723D02*
X101123190Y-79623485D01*
X101123190Y-79623485D02*
X101218428Y-79575866D01*
X101218428Y-79575866D02*
X101456523Y-79575866D01*
X101456523Y-79575866D02*
X101551761Y-79528247D01*
X102456523Y-79956819D02*
X102456523Y-78956819D01*
X102456523Y-79909200D02*
X102361285Y-79956819D01*
X102361285Y-79956819D02*
X102170809Y-79956819D01*
X102170809Y-79956819D02*
X102075571Y-79909200D01*
X102075571Y-79909200D02*
X102027952Y-79861580D01*
X102027952Y-79861580D02*
X101980333Y-79766342D01*
X101980333Y-79766342D02*
X101980333Y-79480628D01*
X101980333Y-79480628D02*
X102027952Y-79385390D01*
X102027952Y-79385390D02*
X102075571Y-79337771D01*
X102075571Y-79337771D02*
X102170809Y-79290152D01*
X102170809Y-79290152D02*
X102361285Y-79290152D01*
X102361285Y-79290152D02*
X102456523Y-79337771D01*
X103313666Y-79909200D02*
X103218428Y-79956819D01*
X103218428Y-79956819D02*
X103027952Y-79956819D01*
X103027952Y-79956819D02*
X102932714Y-79909200D01*
X102932714Y-79909200D02*
X102885095Y-79813961D01*
X102885095Y-79813961D02*
X102885095Y-79433009D01*
X102885095Y-79433009D02*
X102932714Y-79337771D01*
X102932714Y-79337771D02*
X103027952Y-79290152D01*
X103027952Y-79290152D02*
X103218428Y-79290152D01*
X103218428Y-79290152D02*
X103313666Y-79337771D01*
X103313666Y-79337771D02*
X103361285Y-79433009D01*
X103361285Y-79433009D02*
X103361285Y-79528247D01*
X103361285Y-79528247D02*
X102885095Y-79623485D01*
X103789857Y-79956819D02*
X103789857Y-79290152D01*
X103789857Y-79480628D02*
X103837476Y-79385390D01*
X103837476Y-79385390D02*
X103885095Y-79337771D01*
X103885095Y-79337771D02*
X103980333Y-79290152D01*
X103980333Y-79290152D02*
X104075571Y-79290152D01*
X95035905Y-60287819D02*
X95035905Y-61097342D01*
X95035905Y-61097342D02*
X95083524Y-61192580D01*
X95083524Y-61192580D02*
X95131143Y-61240200D01*
X95131143Y-61240200D02*
X95226381Y-61287819D01*
X95226381Y-61287819D02*
X95416857Y-61287819D01*
X95416857Y-61287819D02*
X95512095Y-61240200D01*
X95512095Y-61240200D02*
X95559714Y-61192580D01*
X95559714Y-61192580D02*
X95607333Y-61097342D01*
X95607333Y-61097342D02*
X95607333Y-60287819D01*
X96035905Y-61240200D02*
X96178762Y-61287819D01*
X96178762Y-61287819D02*
X96416857Y-61287819D01*
X96416857Y-61287819D02*
X96512095Y-61240200D01*
X96512095Y-61240200D02*
X96559714Y-61192580D01*
X96559714Y-61192580D02*
X96607333Y-61097342D01*
X96607333Y-61097342D02*
X96607333Y-61002104D01*
X96607333Y-61002104D02*
X96559714Y-60906866D01*
X96559714Y-60906866D02*
X96512095Y-60859247D01*
X96512095Y-60859247D02*
X96416857Y-60811628D01*
X96416857Y-60811628D02*
X96226381Y-60764009D01*
X96226381Y-60764009D02*
X96131143Y-60716390D01*
X96131143Y-60716390D02*
X96083524Y-60668771D01*
X96083524Y-60668771D02*
X96035905Y-60573533D01*
X96035905Y-60573533D02*
X96035905Y-60478295D01*
X96035905Y-60478295D02*
X96083524Y-60383057D01*
X96083524Y-60383057D02*
X96131143Y-60335438D01*
X96131143Y-60335438D02*
X96226381Y-60287819D01*
X96226381Y-60287819D02*
X96464476Y-60287819D01*
X96464476Y-60287819D02*
X96607333Y-60335438D01*
X97369238Y-60764009D02*
X97512095Y-60811628D01*
X97512095Y-60811628D02*
X97559714Y-60859247D01*
X97559714Y-60859247D02*
X97607333Y-60954485D01*
X97607333Y-60954485D02*
X97607333Y-61097342D01*
X97607333Y-61097342D02*
X97559714Y-61192580D01*
X97559714Y-61192580D02*
X97512095Y-61240200D01*
X97512095Y-61240200D02*
X97416857Y-61287819D01*
X97416857Y-61287819D02*
X97035905Y-61287819D01*
X97035905Y-61287819D02*
X97035905Y-60287819D01*
X97035905Y-60287819D02*
X97369238Y-60287819D01*
X97369238Y-60287819D02*
X97464476Y-60335438D01*
X97464476Y-60335438D02*
X97512095Y-60383057D01*
X97512095Y-60383057D02*
X97559714Y-60478295D01*
X97559714Y-60478295D02*
X97559714Y-60573533D01*
X97559714Y-60573533D02*
X97512095Y-60668771D01*
X97512095Y-60668771D02*
X97464476Y-60716390D01*
X97464476Y-60716390D02*
X97369238Y-60764009D01*
X97369238Y-60764009D02*
X97035905Y-60764009D01*
X98559714Y-61287819D02*
X97988286Y-61287819D01*
X98274000Y-61287819D02*
X98274000Y-60287819D01*
X98274000Y-60287819D02*
X98178762Y-60430676D01*
X98178762Y-60430676D02*
X98083524Y-60525914D01*
X98083524Y-60525914D02*
X97988286Y-60573533D01*
X107529333Y-60754419D02*
X107196000Y-60278228D01*
X106957905Y-60754419D02*
X106957905Y-59754419D01*
X106957905Y-59754419D02*
X107338857Y-59754419D01*
X107338857Y-59754419D02*
X107434095Y-59802038D01*
X107434095Y-59802038D02*
X107481714Y-59849657D01*
X107481714Y-59849657D02*
X107529333Y-59944895D01*
X107529333Y-59944895D02*
X107529333Y-60087752D01*
X107529333Y-60087752D02*
X107481714Y-60182990D01*
X107481714Y-60182990D02*
X107434095Y-60230609D01*
X107434095Y-60230609D02*
X107338857Y-60278228D01*
X107338857Y-60278228D02*
X106957905Y-60278228D01*
X107910286Y-59849657D02*
X107957905Y-59802038D01*
X107957905Y-59802038D02*
X108053143Y-59754419D01*
X108053143Y-59754419D02*
X108291238Y-59754419D01*
X108291238Y-59754419D02*
X108386476Y-59802038D01*
X108386476Y-59802038D02*
X108434095Y-59849657D01*
X108434095Y-59849657D02*
X108481714Y-59944895D01*
X108481714Y-59944895D02*
X108481714Y-60040133D01*
X108481714Y-60040133D02*
X108434095Y-60182990D01*
X108434095Y-60182990D02*
X107862667Y-60754419D01*
X107862667Y-60754419D02*
X108481714Y-60754419D01*
X85812333Y-60779819D02*
X85479000Y-60303628D01*
X85240905Y-60779819D02*
X85240905Y-59779819D01*
X85240905Y-59779819D02*
X85621857Y-59779819D01*
X85621857Y-59779819D02*
X85717095Y-59827438D01*
X85717095Y-59827438D02*
X85764714Y-59875057D01*
X85764714Y-59875057D02*
X85812333Y-59970295D01*
X85812333Y-59970295D02*
X85812333Y-60113152D01*
X85812333Y-60113152D02*
X85764714Y-60208390D01*
X85764714Y-60208390D02*
X85717095Y-60256009D01*
X85717095Y-60256009D02*
X85621857Y-60303628D01*
X85621857Y-60303628D02*
X85240905Y-60303628D01*
X86764714Y-60779819D02*
X86193286Y-60779819D01*
X86479000Y-60779819D02*
X86479000Y-59779819D01*
X86479000Y-59779819D02*
X86383762Y-59922676D01*
X86383762Y-59922676D02*
X86288524Y-60017914D01*
X86288524Y-60017914D02*
X86193286Y-60065533D01*
X102449333Y-60811580D02*
X102401714Y-60859200D01*
X102401714Y-60859200D02*
X102258857Y-60906819D01*
X102258857Y-60906819D02*
X102163619Y-60906819D01*
X102163619Y-60906819D02*
X102020762Y-60859200D01*
X102020762Y-60859200D02*
X101925524Y-60763961D01*
X101925524Y-60763961D02*
X101877905Y-60668723D01*
X101877905Y-60668723D02*
X101830286Y-60478247D01*
X101830286Y-60478247D02*
X101830286Y-60335390D01*
X101830286Y-60335390D02*
X101877905Y-60144914D01*
X101877905Y-60144914D02*
X101925524Y-60049676D01*
X101925524Y-60049676D02*
X102020762Y-59954438D01*
X102020762Y-59954438D02*
X102163619Y-59906819D01*
X102163619Y-59906819D02*
X102258857Y-59906819D01*
X102258857Y-59906819D02*
X102401714Y-59954438D01*
X102401714Y-59954438D02*
X102449333Y-60002057D01*
X102830286Y-60002057D02*
X102877905Y-59954438D01*
X102877905Y-59954438D02*
X102973143Y-59906819D01*
X102973143Y-59906819D02*
X103211238Y-59906819D01*
X103211238Y-59906819D02*
X103306476Y-59954438D01*
X103306476Y-59954438D02*
X103354095Y-60002057D01*
X103354095Y-60002057D02*
X103401714Y-60097295D01*
X103401714Y-60097295D02*
X103401714Y-60192533D01*
X103401714Y-60192533D02*
X103354095Y-60335390D01*
X103354095Y-60335390D02*
X102782667Y-60906819D01*
X102782667Y-60906819D02*
X103401714Y-60906819D01*
X84923333Y-63097580D02*
X84875714Y-63145200D01*
X84875714Y-63145200D02*
X84732857Y-63192819D01*
X84732857Y-63192819D02*
X84637619Y-63192819D01*
X84637619Y-63192819D02*
X84494762Y-63145200D01*
X84494762Y-63145200D02*
X84399524Y-63049961D01*
X84399524Y-63049961D02*
X84351905Y-62954723D01*
X84351905Y-62954723D02*
X84304286Y-62764247D01*
X84304286Y-62764247D02*
X84304286Y-62621390D01*
X84304286Y-62621390D02*
X84351905Y-62430914D01*
X84351905Y-62430914D02*
X84399524Y-62335676D01*
X84399524Y-62335676D02*
X84494762Y-62240438D01*
X84494762Y-62240438D02*
X84637619Y-62192819D01*
X84637619Y-62192819D02*
X84732857Y-62192819D01*
X84732857Y-62192819D02*
X84875714Y-62240438D01*
X84875714Y-62240438D02*
X84923333Y-62288057D01*
X85875714Y-63192819D02*
X85304286Y-63192819D01*
X85590000Y-63192819D02*
X85590000Y-62192819D01*
X85590000Y-62192819D02*
X85494762Y-62335676D01*
X85494762Y-62335676D02*
X85399524Y-62430914D01*
X85399524Y-62430914D02*
X85304286Y-62478533D01*
X97917095Y-64732819D02*
X97917095Y-65542342D01*
X97917095Y-65542342D02*
X97964714Y-65637580D01*
X97964714Y-65637580D02*
X98012333Y-65685200D01*
X98012333Y-65685200D02*
X98107571Y-65732819D01*
X98107571Y-65732819D02*
X98298047Y-65732819D01*
X98298047Y-65732819D02*
X98393285Y-65685200D01*
X98393285Y-65685200D02*
X98440904Y-65637580D01*
X98440904Y-65637580D02*
X98488523Y-65542342D01*
X98488523Y-65542342D02*
X98488523Y-64732819D01*
X99488523Y-65732819D02*
X98917095Y-65732819D01*
X99202809Y-65732819D02*
X99202809Y-64732819D01*
X99202809Y-64732819D02*
X99107571Y-64875676D01*
X99107571Y-64875676D02*
X99012333Y-64970914D01*
X99012333Y-64970914D02*
X98917095Y-65018533D01*
X93726619Y-70177819D02*
X93726619Y-69177819D01*
X93726619Y-69177819D02*
X94059952Y-69892104D01*
X94059952Y-69892104D02*
X94393285Y-69177819D01*
X94393285Y-69177819D02*
X94393285Y-70177819D01*
X95440904Y-70082580D02*
X95393285Y-70130200D01*
X95393285Y-70130200D02*
X95250428Y-70177819D01*
X95250428Y-70177819D02*
X95155190Y-70177819D01*
X95155190Y-70177819D02*
X95012333Y-70130200D01*
X95012333Y-70130200D02*
X94917095Y-70034961D01*
X94917095Y-70034961D02*
X94869476Y-69939723D01*
X94869476Y-69939723D02*
X94821857Y-69749247D01*
X94821857Y-69749247D02*
X94821857Y-69606390D01*
X94821857Y-69606390D02*
X94869476Y-69415914D01*
X94869476Y-69415914D02*
X94917095Y-69320676D01*
X94917095Y-69320676D02*
X95012333Y-69225438D01*
X95012333Y-69225438D02*
X95155190Y-69177819D01*
X95155190Y-69177819D02*
X95250428Y-69177819D01*
X95250428Y-69177819D02*
X95393285Y-69225438D01*
X95393285Y-69225438D02*
X95440904Y-69273057D01*
X95869476Y-70177819D02*
X95869476Y-69177819D01*
X95869476Y-69177819D02*
X96250428Y-69177819D01*
X96250428Y-69177819D02*
X96345666Y-69225438D01*
X96345666Y-69225438D02*
X96393285Y-69273057D01*
X96393285Y-69273057D02*
X96440904Y-69368295D01*
X96440904Y-69368295D02*
X96440904Y-69511152D01*
X96440904Y-69511152D02*
X96393285Y-69606390D01*
X96393285Y-69606390D02*
X96345666Y-69654009D01*
X96345666Y-69654009D02*
X96250428Y-69701628D01*
X96250428Y-69701628D02*
X95869476Y-69701628D01*
X96821857Y-69273057D02*
X96869476Y-69225438D01*
X96869476Y-69225438D02*
X96964714Y-69177819D01*
X96964714Y-69177819D02*
X97202809Y-69177819D01*
X97202809Y-69177819D02*
X97298047Y-69225438D01*
X97298047Y-69225438D02*
X97345666Y-69273057D01*
X97345666Y-69273057D02*
X97393285Y-69368295D01*
X97393285Y-69368295D02*
X97393285Y-69463533D01*
X97393285Y-69463533D02*
X97345666Y-69606390D01*
X97345666Y-69606390D02*
X96774238Y-70177819D01*
X96774238Y-70177819D02*
X97393285Y-70177819D01*
X97774238Y-69273057D02*
X97821857Y-69225438D01*
X97821857Y-69225438D02*
X97917095Y-69177819D01*
X97917095Y-69177819D02*
X98155190Y-69177819D01*
X98155190Y-69177819D02*
X98250428Y-69225438D01*
X98250428Y-69225438D02*
X98298047Y-69273057D01*
X98298047Y-69273057D02*
X98345666Y-69368295D01*
X98345666Y-69368295D02*
X98345666Y-69463533D01*
X98345666Y-69463533D02*
X98298047Y-69606390D01*
X98298047Y-69606390D02*
X97726619Y-70177819D01*
X97726619Y-70177819D02*
X98345666Y-70177819D01*
X98726619Y-69273057D02*
X98774238Y-69225438D01*
X98774238Y-69225438D02*
X98869476Y-69177819D01*
X98869476Y-69177819D02*
X99107571Y-69177819D01*
X99107571Y-69177819D02*
X99202809Y-69225438D01*
X99202809Y-69225438D02*
X99250428Y-69273057D01*
X99250428Y-69273057D02*
X99298047Y-69368295D01*
X99298047Y-69368295D02*
X99298047Y-69463533D01*
X99298047Y-69463533D02*
X99250428Y-69606390D01*
X99250428Y-69606390D02*
X98679000Y-70177819D01*
X98679000Y-70177819D02*
X99298047Y-70177819D01*
X100250428Y-70177819D02*
X99679000Y-70177819D01*
X99964714Y-70177819D02*
X99964714Y-69177819D01*
X99964714Y-69177819D02*
X99869476Y-69320676D01*
X99869476Y-69320676D02*
X99774238Y-69415914D01*
X99774238Y-69415914D02*
X99679000Y-69463533D01*
X100631381Y-69892104D02*
X101107571Y-69892104D01*
X100536143Y-70177819D02*
X100869476Y-69177819D01*
X100869476Y-69177819D02*
X101202809Y-70177819D01*
X101440905Y-70177819D02*
X101964714Y-69511152D01*
X101440905Y-69511152D02*
X101964714Y-70177819D01*
X102298048Y-70130200D02*
X102440905Y-70177819D01*
X102440905Y-70177819D02*
X102679000Y-70177819D01*
X102679000Y-70177819D02*
X102774238Y-70130200D01*
X102774238Y-70130200D02*
X102821857Y-70082580D01*
X102821857Y-70082580D02*
X102869476Y-69987342D01*
X102869476Y-69987342D02*
X102869476Y-69892104D01*
X102869476Y-69892104D02*
X102821857Y-69796866D01*
X102821857Y-69796866D02*
X102774238Y-69749247D01*
X102774238Y-69749247D02*
X102679000Y-69701628D01*
X102679000Y-69701628D02*
X102488524Y-69654009D01*
X102488524Y-69654009D02*
X102393286Y-69606390D01*
X102393286Y-69606390D02*
X102345667Y-69558771D01*
X102345667Y-69558771D02*
X102298048Y-69463533D01*
X102298048Y-69463533D02*
X102298048Y-69368295D01*
X102298048Y-69368295D02*
X102345667Y-69273057D01*
X102345667Y-69273057D02*
X102393286Y-69225438D01*
X102393286Y-69225438D02*
X102488524Y-69177819D01*
X102488524Y-69177819D02*
X102726619Y-69177819D01*
X102726619Y-69177819D02*
X102869476Y-69225438D01*
X103774238Y-70177819D02*
X103298048Y-70177819D01*
X103298048Y-70177819D02*
X103298048Y-69177819D01*
D12*
%TO.C,SW1*%
X92374000Y-64732000D02*
X92374000Y-66582000D01*
X93024000Y-66582000D02*
X92374000Y-66582000D01*
X93024000Y-66582000D02*
X93024000Y-72102000D01*
X86554000Y-66582000D02*
X87824000Y-66582000D01*
X86554000Y-66582000D02*
X86554000Y-72102000D01*
X93024000Y-72102000D02*
X91754000Y-72102000D01*
X86554000Y-72102000D02*
X87824000Y-72102000D01*
%TO.C,R2*%
X107153064Y-59330000D02*
X105698936Y-59330000D01*
X107153064Y-57510000D02*
X105698936Y-57510000D01*
%TO.C,R1*%
X86521936Y-57510000D02*
X87976064Y-57510000D01*
X86521936Y-59330000D02*
X87976064Y-59330000D01*
%TO.C,C2*%
X104246000Y-64465252D02*
X104246000Y-63042748D01*
X106066000Y-64465252D02*
X106066000Y-63042748D01*
%TO.C,C1*%
X89306348Y-61777200D02*
X90728852Y-61777200D01*
X89306348Y-63597200D02*
X90728852Y-63597200D01*
%TO.C,REF\u002A\u002A*%
X85234000Y-84127000D02*
X85234000Y-86887000D01*
X85234000Y-86887000D02*
X95614000Y-86887000D01*
X86184000Y-83814358D02*
X86184000Y-84127000D01*
X86184000Y-92887000D02*
X86184000Y-86887000D01*
X87044000Y-83814358D02*
X87044000Y-84127000D01*
X87044000Y-86887000D02*
X87044000Y-92887000D01*
X87044000Y-92887000D02*
X86184000Y-92887000D01*
X87884000Y-84127000D02*
X87884000Y-86887000D01*
X88724000Y-83814358D02*
X88724000Y-84127000D01*
X88724000Y-92887000D02*
X88724000Y-86887000D01*
X89584000Y-83814358D02*
X89584000Y-84127000D01*
X89584000Y-86887000D02*
X89584000Y-92887000D01*
X89584000Y-92887000D02*
X88724000Y-92887000D01*
X90424000Y-84127000D02*
X90424000Y-86887000D01*
X91264000Y-83814358D02*
X91264000Y-84127000D01*
X91264000Y-92887000D02*
X91264000Y-86887000D01*
X92124000Y-83814358D02*
X92124000Y-84127000D01*
X92124000Y-86887000D02*
X92124000Y-92887000D01*
X92124000Y-92887000D02*
X91264000Y-92887000D01*
X92964000Y-84127000D02*
X92964000Y-86887000D01*
X93804000Y-83897000D02*
X93804000Y-84127000D01*
X94234000Y-81467000D02*
X95504000Y-81467000D01*
X94664000Y-83897000D02*
X94664000Y-84127000D01*
X95504000Y-81467000D02*
X95504000Y-82737000D01*
X95614000Y-84127000D02*
X85234000Y-84127000D01*
X95614000Y-86887000D02*
X95614000Y-84127000D01*
X94664000Y-86887000D02*
X93804000Y-86887000D01*
X93804000Y-92887000D01*
X94664000Y-92887000D01*
X94664000Y-86887000D01*
G36*
X94664000Y-86887000D02*
G01*
X93804000Y-86887000D01*
X93804000Y-92887000D01*
X94664000Y-92887000D01*
X94664000Y-86887000D01*
G37*
%TO.C,TP3*%
X89987600Y-57415900D02*
X91887600Y-57415900D01*
X89987600Y-59315900D02*
X89987600Y-57415900D01*
X91887600Y-57415900D02*
X91887600Y-59315900D01*
X91887600Y-59315900D02*
X89987600Y-59315900D01*
%TO.C,U1*%
X94244000Y-65278000D02*
X94244000Y-63328000D01*
X94244000Y-65278000D02*
X94244000Y-67228000D01*
X103114000Y-65278000D02*
X103114000Y-63328000D01*
X103114000Y-65278000D02*
X103114000Y-67228000D01*
X94309000Y-67978000D02*
X93979000Y-68218000D01*
X93979000Y-67738000D01*
X94309000Y-67978000D01*
G36*
X94309000Y-67978000D02*
G01*
X93979000Y-68218000D01*
X93979000Y-67738000D01*
X94309000Y-67978000D01*
G37*
%TO.C,REF\u002A\u002A*%
X86147600Y-61317200D02*
X93887600Y-61317200D01*
X86147600Y-64057200D02*
X86147600Y-61317200D01*
X93887600Y-61317200D02*
X93887600Y-64057200D01*
X93887600Y-64057200D02*
X86147600Y-64057200D01*
X91457000Y-75582000D02*
X91457000Y-78342000D01*
X99187000Y-75582000D02*
X91457000Y-75582000D01*
X99187000Y-75582000D02*
X99187000Y-78342000D01*
X99187000Y-78342000D02*
X91457000Y-78342000D01*
X100457000Y-75582000D02*
X101837000Y-75582000D01*
X101837000Y-75582000D02*
X101837000Y-76962000D01*
X94632000Y-72052000D02*
X95377000Y-72052000D01*
X94632000Y-72787000D02*
X94632000Y-72052000D01*
X94632000Y-73522000D02*
X94632000Y-74397000D01*
X94632000Y-73522000D02*
X94691435Y-73522000D01*
X94632000Y-74397000D02*
X94966970Y-74397000D01*
X95787030Y-74397000D02*
X96122000Y-74397000D01*
X96062565Y-73522000D02*
X96122000Y-73522000D01*
X96122000Y-73522000D02*
X96122000Y-74397000D01*
X97172000Y-72052000D02*
X97917000Y-72052000D01*
X97172000Y-72787000D02*
X97172000Y-72052000D01*
X97172000Y-73522000D02*
X97172000Y-74397000D01*
X97172000Y-73522000D02*
X97231435Y-73522000D01*
X97172000Y-74397000D02*
X97506970Y-74397000D01*
X98327030Y-74397000D02*
X98662000Y-74397000D01*
X98602565Y-73522000D02*
X98662000Y-73522000D01*
X98662000Y-73522000D02*
X98662000Y-74397000D01*
X103786000Y-59884000D02*
X106526000Y-59884000D01*
X103786000Y-67624000D02*
X103786000Y-59884000D01*
X106526000Y-59884000D02*
X106526000Y-67624000D01*
X106526000Y-67624000D02*
X103786000Y-67624000D01*
%TO.C,TP3*%
X101811300Y-57415900D02*
X103711300Y-57415900D01*
X101811300Y-59315900D02*
X101811300Y-57415900D01*
X103711300Y-57415900D02*
X103711300Y-59315900D01*
X103711300Y-59315900D02*
X101811300Y-59315900D01*
%TO.C,REF\u002A\u002A*%
X97680000Y-84127000D02*
X97680000Y-86887000D01*
X97680000Y-86887000D02*
X108060000Y-86887000D01*
X98630000Y-83814358D02*
X98630000Y-84127000D01*
X98630000Y-92887000D02*
X98630000Y-86887000D01*
X99490000Y-83814358D02*
X99490000Y-84127000D01*
X99490000Y-86887000D02*
X99490000Y-92887000D01*
X99490000Y-92887000D02*
X98630000Y-92887000D01*
X100330000Y-84127000D02*
X100330000Y-86887000D01*
X101170000Y-83814358D02*
X101170000Y-84127000D01*
X101170000Y-92887000D02*
X101170000Y-86887000D01*
X102030000Y-83814358D02*
X102030000Y-84127000D01*
X102030000Y-86887000D02*
X102030000Y-92887000D01*
X102030000Y-92887000D02*
X101170000Y-92887000D01*
X102870000Y-84127000D02*
X102870000Y-86887000D01*
X103710000Y-83814358D02*
X103710000Y-84127000D01*
X103710000Y-92887000D02*
X103710000Y-86887000D01*
X104570000Y-83814358D02*
X104570000Y-84127000D01*
X104570000Y-86887000D02*
X104570000Y-92887000D01*
X104570000Y-92887000D02*
X103710000Y-92887000D01*
X105410000Y-84127000D02*
X105410000Y-86887000D01*
X106250000Y-83897000D02*
X106250000Y-84127000D01*
X106680000Y-81467000D02*
X107950000Y-81467000D01*
X107110000Y-83897000D02*
X107110000Y-84127000D01*
X107950000Y-81467000D02*
X107950000Y-82737000D01*
X108060000Y-84127000D02*
X97680000Y-84127000D01*
X108060000Y-86887000D02*
X108060000Y-84127000D01*
X107110000Y-86887000D02*
X106250000Y-86887000D01*
X106250000Y-92887000D01*
X107110000Y-92887000D01*
X107110000Y-86887000D01*
G36*
X107110000Y-86887000D02*
G01*
X106250000Y-86887000D01*
X106250000Y-92887000D01*
X107110000Y-92887000D01*
X107110000Y-86887000D01*
G37*
%TD*%
M02*
