%TF.GenerationSoftware,KiCad,Pcbnew,9.0.5*%
%TF.CreationDate,2025-10-22T16:43:25-04:00*%
%TF.ProjectId,USBC_I2C,55534243-5f49-4324-932e-6b696361645f,rev?*%
%TF.SameCoordinates,Original*%
%TF.FileFunction,Paste,Top*%
%TF.FilePolarity,Positive*%
%FSLAX46Y46*%
G04 Gerber Fmt 4.6, Leading zero omitted, Abs format (unit mm)*
G04 Created by KiCad (PCBNEW 9.0.5) date 2025-10-22 16:43:25*
%MOMM*%
%LPD*%
G01*
G04 APERTURE LIST*
G04 Aperture macros list*
%AMRoundRect*
0 Rectangle with rounded corners*
0 $1 Rounding radius*
0 $2 $3 $4 $5 $6 $7 $8 $9 X,Y pos of 4 corners*
0 Add a 4 corners polygon primitive as box body*
4,1,4,$2,$3,$4,$5,$6,$7,$8,$9,$2,$3,0*
0 Add four circle primitives for the rounded corners*
1,1,$1+$1,$2,$3*
1,1,$1+$1,$4,$5*
1,1,$1+$1,$6,$7*
1,1,$1+$1,$8,$9*
0 Add four rect primitives between the rounded corners*
20,1,$1+$1,$2,$3,$4,$5,0*
20,1,$1+$1,$4,$5,$6,$7,0*
20,1,$1+$1,$6,$7,$8,$9,0*
20,1,$1+$1,$8,$9,$2,$3,0*%
G04 Aperture macros list end*
%ADD10R,0.380000X1.000000*%
%ADD11R,0.700000X1.150000*%
%ADD12RoundRect,0.190000X-0.190000X0.610000X-0.190000X-0.610000X0.190000X-0.610000X0.190000X0.610000X0*%
%ADD13RoundRect,0.250000X0.312500X0.625000X-0.312500X0.625000X-0.312500X-0.625000X0.312500X-0.625000X0*%
%ADD14RoundRect,0.250000X-0.312500X-0.625000X0.312500X-0.625000X0.312500X0.625000X-0.312500X0.625000X0*%
%ADD15RoundRect,0.250000X0.650000X-0.412500X0.650000X0.412500X-0.650000X0.412500X-0.650000X-0.412500X0*%
%ADD16RoundRect,0.250000X-0.412500X-0.650000X0.412500X-0.650000X0.412500X0.650000X-0.412500X0.650000X0*%
%ADD17RoundRect,0.150000X0.150000X-0.825000X0.150000X0.825000X-0.150000X0.825000X-0.150000X-0.825000X0*%
G04 APERTURE END LIST*
D10*
%TO.C,USB1*%
X94060000Y-59182000D03*
X94560000Y-59182000D03*
X95060000Y-59182000D03*
X95560000Y-59182000D03*
X96060000Y-59182000D03*
X96560000Y-59182000D03*
X97060000Y-59182000D03*
X97560000Y-59182000D03*
X98060000Y-59182000D03*
X98560000Y-59182000D03*
X99060000Y-59182000D03*
X99560000Y-59182000D03*
D11*
X93390000Y-60022000D03*
%TD*%
D12*
%TO.C,SW1*%
X91694000Y-65532000D03*
X90424000Y-65532000D03*
X89154000Y-65532000D03*
X87884000Y-65532000D03*
X87884000Y-73152000D03*
X89154000Y-73152000D03*
X90424000Y-73152000D03*
X91694000Y-73152000D03*
%TD*%
D13*
%TO.C,R2*%
X107888500Y-58420000D03*
X104963500Y-58420000D03*
%TD*%
D14*
%TO.C,R1*%
X85786500Y-58420000D03*
X88711500Y-58420000D03*
%TD*%
D15*
%TO.C,C2*%
X105156000Y-65316500D03*
X105156000Y-62191500D03*
%TD*%
D16*
%TO.C,C1*%
X88455100Y-62687200D03*
X91580100Y-62687200D03*
%TD*%
D17*
%TO.C,U1*%
X94869000Y-67753000D03*
X96139000Y-67753000D03*
X97409000Y-67753000D03*
X98679000Y-67753000D03*
X99949000Y-67753000D03*
X101219000Y-67753000D03*
X102489000Y-67753000D03*
X102489000Y-62803000D03*
X101219000Y-62803000D03*
X99949000Y-62803000D03*
X98679000Y-62803000D03*
X97409000Y-62803000D03*
X96139000Y-62803000D03*
X94869000Y-62803000D03*
%TD*%
M02*
